/* XPM */
static char * primon_xpm[] = {
"32 32 116 2",
"  	c None",
". 	c #000000",
"+ 	c #000409",
"@ 	c #00060B",
"# 	c #000F1A",
"$ 	c #001626",
"% 	c #001C31",
"& 	c #00223B",
"* 	c #002946",
"= 	c #002F51",
"- 	c #00355C",
"; 	c #003B66",
"> 	c #004171",
", 	c #00487D",
"' 	c #004E87",
") 	c #005592",
"! 	c #005B9D",
"~ 	c #0061A8",
"{ 	c #0067B2",
"] 	c #006EBD",
"^ 	c #0074C9",
"/ 	c #00528E",
"( 	c #000203",
"_ 	c #00070C",
": 	c #005B9C",
"< 	c #386180",
"[ 	c #DAE3E9",
"} 	c #E5ECF1",
"| 	c #91B0C7",
"1 	c #527690",
"2 	c #507896",
"3 	c #265D86",
"4 	c #F9FBFC",
"5 	c #024F88",
"6 	c #0B436D",
"7 	c #B3C6D5",
"8 	c #84A7C0",
"9 	c #124368",
"0 	c #CCD8E0",
"a 	c #7497B2",
"b 	c #A0B4C2",
"c 	c #FEFEFE",
"d 	c #F4F7F9",
"e 	c #0B568C",
"f 	c #00233D",
"g 	c #001829",
"h 	c #001A2D",
"i 	c #001D32",
"j 	c #001F36",
"k 	c #00223A",
"l 	c #00243F",
"m 	c #002743",
"n 	c #002947",
"o 	c #002C4C",
"p 	c #002E50",
"q 	c #00243E",
"r 	c #000101",
"s 	c #000001",
"t 	c #000407",
"u 	c #00060A",
"v 	c #00080E",
"w 	c #000A11",
"x 	c #000C15",
"y 	c #000E19",
"z 	c #00101C",
"A 	c #001320",
"B 	c #001524",
"C 	c #001727",
"D 	c #00192B",
"E 	c #001B2E",
"F 	c #002139",
"G 	c #002541",
"H 	c #000406",
"I 	c #000910",
"J 	c #000D17",
"K 	c #00111D",
"L 	c #001423",
"M 	c #00192A",
"N 	c #00121F",
"O 	c #000102",
"P 	c #000B14",
"Q 	c #00182A",
"R 	c #001E34",
"S 	c #002B4B",
"T 	c #003155",
"U 	c #003860",
"V 	c #003E6B",
"W 	c #004476",
"X 	c #004A80",
"Y 	c #00518B",
"Z 	c #005796",
"` 	c #005EA1",
" .	c #0064AC",
"..	c #006AB7",
"+.	c #0070C2",
"@.	c #0076CC",
"#.	c #002846",
"$.	c #000204",
"%.	c #02406C",
"&.	c #BBCDDA",
"*.	c #8CADC6",
"=.	c #15486D",
"-.	c #AFC2D1",
";.	c #FFFFFF",
">.	c #416B89",
",.	c #92ADC0",
"'.	c #B7CAD8",
").	c #B0C5D5",
"!.	c #000305",
"~.	c #000306",
"{.	c #000508",
"].	c #000408",
"^.	c #00070D",
"/.	c #000911",
"(.	c #000A12",
"_.	c #000A13",
"                                                                ",
"                                                                ",
"    . . . . . . . . . . . . . . . . . . . . +                   ",
"    . @ # $ % & * = - ; > , ' ) ! ~ { ] ^ / (                   ",
"    . _ # $ % & * = - ; > , ' ) ! ~ { ] ^ : (                   ",
"    . _ # $ % & * = - ; > , ' ) ! ~ { ] ^ : (                   ",
"    . _ # $ % & * = < [ } | ' ) ! ~ { ] ^ : (                   ",
"    . _ # $ % & * = 1 2 3 4 5 ) ! ~ { ] ^ : (                   ",
"    . _ # $ % & * = - 6 7 8 ' ) ! ~ { ] ^ : (                   ",
"    . _ # $ % & * = 9 0 a , ' ) ! ~ { ] ^ : (                   ",
"    . _ # $ % & * = b c d d e ) ! ~ { ] ^ : (                   ",
"    . _ # $ % & * = - ; > , ' ) ! ~ { ] ^ : (                   ",
"    . _ # $ % & * = f g h i j k l m n o p q r . . . . . .       ",
"    . _ # $ % & * & s t u v w x y z A B C D E i j F f G m @ .   ",
"    . H I J K L M N O P N Q R l S T U V W X Y Z `  ...+.@.#..   ",
"      . r O O O $.O s P N Q R l S T U V W X Y Z `  ...+.@.#..   ",
"                    s P N Q R l S T U %.&.*.Y Z `  ...+.@.#..   ",
"                    s P N Q R l S T =.-.;.*.Y Z `  ...+.@.#..   ",
"                    s P N Q R l S T >.,.'.*.Y Z `  ...+.@.#..   ",
"                    s P N Q R l S T U V ).*.Y Z `  ...+.@.#..   ",
"                    s P N Q R l S T U V ).*.Y Z `  ...+.@.#..   ",
"                    s P N Q R l S T U V ).*.Y Z `  ...+.@.#..   ",
"                    s P N Q R l S T U V ).*.Y Z `  ...+.@.#..   ",
"                    s P N Q R l S T U V W X Y Z `  ...+.@.#..   ",
"                    s P N Q R l S T U V W X Y Z `  ...+.@.#..   ",
"                    s P N Q R l S T U V W X Y Z `  ...+.@.#..   ",
"                    . O ( $.!.~.t {.].u _ ^.^.I /.(._.P x O     ",
"                                  . . . . . . .                 ",
"                                . . . . . . . . .               ",
"                              . . . . . . . . . .               ",
"                                                                ",
"                                                                "};
